<?xml version="1.0" encoding="UTF-8" standalone="no"?>
<!-- Created with matplotlib (https://matplotlib.org/) -->

<svg
   height="313.15283pt"
   version="1.1"
   viewBox="0 0 413.34266 313.15283"
   width="413.34265pt"
   id="svg191"
   sodipodi:docname="Equilibrating_zoomed_in.svg"
   inkscape:version="1.1 (c68e22c387, 2021-05-23)"
   xmlns:inkscape="http://www.inkscape.org/namespaces/inkscape"
   xmlns:sodipodi="http://sodipodi.sourceforge.net/DTD/sodipodi-0.dtd"
   xmlns:xlink="http://www.w3.org/1999/xlink"
   xmlns="http://www.w3.org/2000/svg"
   xmlns:svg="http://www.w3.org/2000/svg"
   xmlns:rdf="http://www.w3.org/1999/02/22-rdf-syntax-ns#"
   xmlns:cc="http://creativecommons.org/ns#"
   xmlns:dc="http://purl.org/dc/elements/1.1/">
  <sodipodi:namedview
     id="namedview193"
     pagecolor="#ffffff"
     bordercolor="#666666"
     borderopacity="1.0"
     inkscape:pageshadow="2"
     inkscape:pageopacity="0.0"
     inkscape:pagecheckerboard="0"
     inkscape:document-units="pt"
     showgrid="false"
     inkscape:zoom="1.9509548"
     inkscape:cx="304.4663"
     inkscape:cy="179.91191"
     inkscape:window-width="2560"
     inkscape:window-height="1566"
     inkscape:window-x="-11"
     inkscape:window-y="-11"
     inkscape:window-maximized="1"
     inkscape:current-layer="axes_1" />
  <metadata
     id="metadata2">
    <rdf:RDF>
      <cc:Work>
        <dc:type
           rdf:resource="http://purl.org/dc/dcmitype/StillImage" />
        <dc:date>2022-05-23T14:56:24.854563</dc:date>
        <dc:format>image/svg+xml</dc:format>
        <dc:creator>
          <cc:Agent>
            <dc:title>Matplotlib v3.3.4, https://matplotlib.org/</dc:title>
          </cc:Agent>
        </dc:creator>
      </cc:Work>
    </rdf:RDF>
  </metadata>
  <defs
     id="defs6">
    <style
       type="text/css"
       id="style4">*{stroke-linecap:butt;stroke-linejoin:round;}</style>
  </defs>
  <g
     id="figure_1"
     transform="translate(-1.7773436,-37.849342)">
    <g
       id="patch_1" />
    <g
       id="axes_1">
      <g
         id="patch_2">
        <path
           d="M 57.6,307.584 H 414.72 V 41.472 H 57.6 Z"
           style="fill:#ffffff"
           id="path11" />
      </g>
      <g
         id="line2d_1">
        <defs
           id="defs15">
          <path
             d="M 0,0 V 3.5"
             id="m1747e6b44c"
             style="stroke:#000000;stroke-width:0.8" />
        </defs>
        <g
           id="g19">
          <use
             style="stroke:#000000;stroke-width:0.8"
             x="73.832726"
             xlink:href="#m1747e6b44c"
             y="307.58401"
             id="use17"
             width="100%"
             height="100%" />
        </g>
      </g>
      <g
         id="text_1"
         transform="translate(0,4.5)">
        <text
           style="font-style:normal;font-weight:normal;font-stretch:normal;font-size:10px;font-family:'DejaVu Sans';text-anchor:middle"
           x="73.832726"
           y="322.18243"
           id="text22">0.0</text>
      </g>
      <g
         id="line2d_2">
        <g
           id="g28">
          <use
             style="stroke:#000000;stroke-width:0.8"
             x="127.97791"
             xlink:href="#m1747e6b44c"
             y="307.58401"
             id="use26"
             width="100%"
             height="100%" />
        </g>
      </g>
      <g
         id="text_2"
         transform="translate(0,4.5)">
        <text
           style="font-style:normal;font-weight:normal;font-stretch:normal;font-size:10px;font-family:'DejaVu Sans';text-anchor:middle"
           x="127.97791"
           y="322.18243"
           id="text31">0.5</text>
      </g>
      <g
         id="line2d_3">
        <g
           id="g37">
          <use
             style="stroke:#000000;stroke-width:0.8"
             x="182.12311"
             xlink:href="#m1747e6b44c"
             y="307.58401"
             id="use35"
             width="100%"
             height="100%" />
        </g>
      </g>
      <g
         id="text_3"
         transform="translate(0,4.5)">
        <text
           style="font-style:normal;font-weight:normal;font-stretch:normal;font-size:10px;font-family:'DejaVu Sans';text-anchor:middle"
           x="182.12311"
           y="322.18243"
           id="text40">1.0</text>
      </g>
      <g
         id="line2d_4">
        <g
           id="g46">
          <use
             style="stroke:#000000;stroke-width:0.8"
             x="236.2683"
             xlink:href="#m1747e6b44c"
             y="307.58401"
             id="use44"
             width="100%"
             height="100%" />
        </g>
      </g>
      <g
         id="text_4"
         transform="translate(0,4.5)">
        <text
           style="font-style:normal;font-weight:normal;font-stretch:normal;font-size:10px;font-family:'DejaVu Sans';text-anchor:middle"
           x="236.2683"
           y="322.18243"
           id="text49">1.5</text>
      </g>
      <g
         id="line2d_5">
        <g
           id="g55">
          <use
             style="stroke:#000000;stroke-width:0.8"
             x="290.41348"
             xlink:href="#m1747e6b44c"
             y="307.58401"
             id="use53"
             width="100%"
             height="100%" />
        </g>
      </g>
      <g
         id="text_5"
         transform="translate(0,4.5)">
        <text
           style="font-style:normal;font-weight:normal;font-stretch:normal;font-size:10px;font-family:'DejaVu Sans';text-anchor:middle"
           x="290.41348"
           y="322.18243"
           id="text58">2.0</text>
      </g>
      <g
         id="line2d_6">
        <g
           id="g64">
          <use
             style="stroke:#000000;stroke-width:0.8"
             x="344.55865"
             xlink:href="#m1747e6b44c"
             y="307.58401"
             id="use62"
             width="100%"
             height="100%" />
        </g>
      </g>
      <g
         id="text_6"
         transform="translate(0,4.5)">
        <text
           style="font-style:normal;font-weight:normal;font-stretch:normal;font-size:10px;font-family:'DejaVu Sans';text-anchor:middle"
           x="344.55865"
           y="322.18243"
           id="text67">2.5</text>
      </g>
      <g
         id="line2d_7">
        <g
           id="g73">
          <use
             style="stroke:#000000;stroke-width:0.8"
             x="398.70386"
             xlink:href="#m1747e6b44c"
             y="307.58401"
             id="use71"
             width="100%"
             height="100%" />
        </g>
      </g>
      <g
         id="text_7"
         transform="translate(0,4.5)">
        <text
           style="font-style:normal;font-weight:normal;font-stretch:normal;font-size:10px;font-family:'DejaVu Sans';text-anchor:middle"
           x="398.70386"
           y="322.18243"
           id="text76">3.0</text>
      </g>
      <g
         id="text_8"
         transform="translate(0,15)">
        <text
           style="font-style:normal;font-weight:normal;font-stretch:normal;font-size:10px;font-family:'DejaVu Sans';text-anchor:middle"
           x="236.16"
           y="335.86057"
           id="text80">amount of trial moves</text>
      </g>
      <g
         id="text_9"
         transform="translate(0,15)">
        <text
           style="font-style:normal;font-weight:normal;font-stretch:normal;font-size:10px;font-family:'DejaVu Sans';text-anchor:end"
           x="414.72"
           y="334.86057"
           id="text83">1e6</text>
      </g>
      <g
         id="ytick_1">
        <g
           id="line2d_8">
          <defs
             id="defs88">
            <path
               d="M 0,0 H -3.5"
               id="m48e443af77"
               style="stroke:#000000;stroke-width:0.8" />
          </defs>
          <g
             id="g92">
            <use
               style="stroke:#000000;stroke-width:0.8"
               x="57.599998"
               xlink:href="#m48e443af77"
               y="307.58401"
               id="use90"
               width="100%"
               height="100%" />
          </g>
        </g>
        <g
           id="text_10">
          <text
             style="font-style:normal;font-weight:normal;font-stretch:normal;font-size:10px;font-family:'DejaVu Sans';text-anchor:end"
             x="50.599998"
             y="311.38321"
             id="text95">−10.1</text>
        </g>
      </g>
      <g
         id="ytick_2">
        <g
           id="line2d_9">
          <g
             id="g101">
            <use
               style="stroke:#000000;stroke-width:0.8"
               x="57.599998"
               xlink:href="#m48e443af77"
               y="254.3616"
               id="use99"
               width="100%"
               height="100%" />
          </g>
        </g>
        <g
           id="text_11">
          <text
             style="font-style:normal;font-weight:normal;font-stretch:normal;font-size:10px;font-family:'DejaVu Sans';text-anchor:end"
             x="50.599998"
             y="258.16083"
             id="text104">−10.0</text>
        </g>
      </g>
      <g
         id="ytick_3">
        <g
           id="line2d_10">
          <g
             id="g110">
            <use
               style="stroke:#000000;stroke-width:0.8"
               x="57.599998"
               xlink:href="#m48e443af77"
               y="201.13921"
               id="use108"
               width="100%"
               height="100%" />
          </g>
        </g>
        <g
           id="text_12">
          <text
             style="font-style:normal;font-weight:normal;font-stretch:normal;font-size:10px;font-family:'DejaVu Sans';text-anchor:end"
             x="50.599998"
             y="204.93842"
             id="text113">−9.9</text>
        </g>
      </g>
      <g
         id="ytick_4">
        <g
           id="line2d_11">
          <g
             id="g119">
            <use
               style="stroke:#000000;stroke-width:0.8"
               x="57.599998"
               xlink:href="#m48e443af77"
               y="147.91679"
               id="use117"
               width="100%"
               height="100%" />
          </g>
        </g>
        <g
           id="text_13">
          <text
             style="font-style:normal;font-weight:normal;font-stretch:normal;font-size:10px;font-family:'DejaVu Sans';text-anchor:end"
             x="50.599998"
             y="151.71602"
             id="text122">−9.8</text>
        </g>
      </g>
      <g
         id="ytick_5">
        <g
           id="line2d_12">
          <g
             id="g128">
            <use
               style="stroke:#000000;stroke-width:0.8"
               x="57.599998"
               xlink:href="#m48e443af77"
               y="94.694397"
               id="use126"
               width="100%"
               height="100%" />
          </g>
        </g>
        <g
           id="text_14">
          <text
             style="font-style:normal;font-weight:normal;font-stretch:normal;font-size:10px;font-family:'DejaVu Sans';text-anchor:end"
             x="50.599998"
             y="98.493622"
             id="text131">−9.7</text>
        </g>
      </g>
      <g
         id="ytick_6">
        <g
           id="line2d_13">
          <g
             id="g137">
            <use
               style="stroke:#000000;stroke-width:0.8"
               x="57.599998"
               xlink:href="#m48e443af77"
               y="41.472"
               id="use135"
               width="100%"
               height="100%" />
          </g>
        </g>
        <g
           id="text_15">
          <text
             style="font-style:normal;font-weight:normal;font-stretch:normal;font-size:10px;font-family:'DejaVu Sans';text-anchor:end"
             x="50.599998"
             y="45.271217"
             id="text140">−9.6</text>
        </g>
      </g>
      <g
         id="text_16"
         transform="translate(-4.5)">
        <text
           style="font-style:normal;font-weight:normal;font-stretch:normal;font-size:10px;font-family:'DejaVu Sans';text-anchor:middle"
           transform="rotate(-90,13.875,174.528)"
           x="13.875"
           y="174.528"
           id="text144">total energy in \si{\zepto\joule}</text>
      </g>
      <g
         id="line2d_14">
        <path
           clip-path="url(#p27500dee21)"
           d="m 79.004777,-1 0.242469,31.10684 0.216581,28.907431 0.216581,-2.446838 0.21658,-8.453138 0.216581,54.326585 0.216581,13.01794 0.216581,-0.47267 0.21658,22.56179 0.216581,3.31326 0.216581,-32.11585 0.433161,20.77991 0.216581,34.7686 0.216581,15.94719 0.216581,-3.05163 0.21658,-16.97172 0.216581,-46.76663 0.216581,22.61756 0.216581,48.99795 0.21658,-9.38364 0.216581,-17.42939 0.216581,22.80395 0.216581,-14.27937 0.21658,15.59971 0.216581,-42.86657 0.216581,21.84193 0.216581,-0.26325 0.21658,-11.60756 0.216581,18.64161 0.216581,0.42643 0.216581,15.0864 0.21658,1.49935 0.216581,-6.91274 0.216581,9.82103 0.216581,-14.6081 0.433161,-12.43113 0.216581,21.41396 0.433161,65.54904 0.216581,-16.25604 0.216581,-29.5751 0.216581,14.81127 0.433161,-26.28333 0.216581,4.49299 0.216581,-0.29025 0.21658,36.18158 0.216581,11.39076 0.216581,-9.7642 0.216581,9.84339 0.433161,-27.17227 0.433162,-41.07588 0.21658,-15.9362 0.216581,58.73773 0.216581,-11.63281 0.216581,-23.59484 0.21658,31.04468 0.216581,4.8868 0.216581,-25.88542 0.216581,6.60073 0.21658,15.13595 0.216581,-46.79934 0.216581,-10.12808 0.216581,-3.20518 1.082903,73.02328 0.216581,-49.15864 0.216581,-21.10608 0.216581,29.12928 0.21658,-2.85495 0.216581,16.90779 0.433162,18.60364 0.21658,46.55224 0.216581,-30.20072 0.216581,8.83598 0.433161,-32.93713 0.216581,-32.01111 0.216581,-13.53258 0.433161,73.72528 0.216581,9.02919 0.216581,-60.63796 0.216581,30.57485 0.21658,-8.3218 0.216581,-21.17485 0.649742,-24.50487 0.216583,17.25536 0.21658,-6.28879 0.21658,18.37174 0.21658,-12.17167 0.21658,-28.28696 0.21658,11.05513 0.21658,48.19538 0.21658,-35.75964 0.21658,-5.54977 0.21659,46.12185 0.21658,0.90391 0.21658,17.9886 0.21658,-6.50439 0.21658,5.59775 0.21658,-36.36866 0.43316,-35.88635 0.21658,-20.59495 0.21658,26.97811 0.21658,-32.90588 0.21658,63.54753 0.21658,3.29413 0.21659,-12.35169 0.21657,34.06175 0.21659,-0.67719 0.21658,-11.73455 0.21658,17.73288 0.43316,-42.00086 0.21658,-0.45556 0.21658,12.26342 0.21658,-30.36689 0.43316,19.09688 0.21658,33.56284 0.43316,-65.17481 0.21659,-11.40203 0.21658,17.75493 0.43316,67.10241 0.21658,-5.50717 0.21658,-9.34449 0.21658,0.37497 0.21658,-20.12369 0.21658,6.2549 0.21658,-3.93789 0.21658,29.66275 0.21658,-28.79844 0.43317,-13.66217 0.21658,16.54787 0.21658,-9.83113 0.21658,31.74194 0.21658,-38.40747 0.21658,26.37501 0.21658,5.7868 0.21658,-34.12946 0.21658,8.51373 0.21658,42.05326 0.21658,-39.81453 0.21658,-8.6304 0.21659,6.80077 0.21657,2.70689 0.43317,24.26899 0.21658,3.46696 0.21658,-36.51953 0.21658,51.28454 0.21658,5.39155 0.21658,-24.71502 0.21658,-2.25261 0.21658,14.38047 0.43316,-28.27667 0.21658,26.18579 0.21658,-11.40483 0.21659,-3.59932 0.43316,-32.37141 0.43316,59.80101 0.21658,-10.42919 0.21658,-38.77996 0.21658,18.94859 0.21658,9.04178 0.21658,-34.72975 0.43316,73.26336 0.21658,-26.29807 0.21659,-12.4856 0.21658,-22.31107 0.21658,26.23866 0.43316,-48.67534 0.21658,10.338 0.21658,61.82513 0.21658,-34.47097 0.21658,-6.3556 0.21658,17.34622 0.21658,-45.85971 0.21658,14.85788 0.21659,2.58527 0.21658,-33.35525 0.21658,31.72356 0.21658,6.57762 0.21658,-1.48089 0.21658,-18.11621 0.21658,-8.22713 0.21658,11.90446 0.21658,26.06964 0.21658,-3.61289 0.21658,-20.99204 0.21658,-42.67152 0.21658,29.87409 0.21658,-0.89314 0.21658,21.30164 0.21659,-0.56125 0.21658,-37.18286 0.21658,31.93671 0.21658,-8.70448 0.43316,67.8003 0.43316,-61.95358 0.21658,7.84818 0.21658,-12.33424 0.21658,-3.48712 0.21658,37.36283 0.21658,-16.94505 0.21659,-34.26423 0.21658,-5.69452 0.43316,13.21232 0.21658,16.94238 0.21658,29.99648 0.21658,-22.33839 0.21658,15.78011 0.21658,-1.07499 0.21658,8.42776 0.21658,-39.3911 0.21658,22.54075 0.21658,34.10781 0.43317,-67.85008 0.21658,3.48133 0.43316,-20.34404 0.21658,11.99456 0.21658,37.31153 0.21658,8.03326 0.21658,-5.33245 0.43316,-47.35846 0.21658,5.7585 0.21658,-31.0047 0.21658,14.19659 0.21659,-18.05164 0.21658,62.85749 0.21658,3.05683 0.21658,56.49235 0.21658,-14.83914 0.21658,11.21164 0.21658,-21.8354 0.21658,20.39345 0.21658,-21.93493 0.21658,23.05222 0.21658,9.32912 0.21658,35.61438 0.21658,-57.76356 0.21659,21.63918 0.21658,-21.83924 0.21658,-33.8432 0.21658,23.90014 0.21658,-27.53013 0.21658,14.96272 0.21658,36.07734 0.21658,-3.8569 0.21658,-64.27179 0.43316,48.0951 0.21658,12.87958 0.64975,57.9049 0.21658,-65.75481 0.43316,15.48448 0.21658,-26.03018 0.21658,-40.88191 0.21658,21.44426 0.21658,-17.16901 0.21658,5.89401 0.21658,22.06443 0.21658,9.53959 0.21658,-6.35769 0.21658,20.32851 0.21659,-9.43087 0.21658,16.16086 0.21658,-53.87805 0.21658,30.4162 0.21658,6.42863 0.21658,-10.96768 0.21658,34.20019 0.21658,5.48451 0.21658,-52.45471 0.21658,32.99312 0.21658,-62.46131 0.21658,8.27088 0.21658,-5.35183 0.21659,26.74867 0.21658,-38.31025 0.21658,1.92274 0.21658,46.93445 0.21658,-31.97653 0.21658,-3.52942 0.21658,15.85414 0.21658,-23.43632 0.21658,48.32037 0.21658,-4.25247 0.43316,-38.05683 0.43317,5.26615 0.21658,7.00116 0.21658,-5.90389 0.21658,1.59194 0.21658,27.4813 0.21658,-23.53676 0.43316,72.2764 0.21658,-17.73797 0.43316,-15.58522 0.21658,-21.04737 0.21658,40.77912 0.21658,-13.4964 0.21659,25.3772 0.64974,-93.00365 0.21658,5.37398 0.21658,13.21574 0.21658,-14.0803 0.21658,56.6981 0.21658,8.62401 0.21658,-13.32867 0.21658,-6.02292 0.43316,-37.28454 0.43317,17.28597 0.21658,21.23777 0.21658,4.83582 0.21658,-5.26362 0.21658,-34.99146 0.21658,5.09533 0.64974,47.56512 0.21658,2.62068 0.21658,17.54051 0.21658,-7.31571 0.21659,4.61802 0.21658,-0.19748 0.21658,-2.22711 0.21658,11.28406 0.21658,-23.99253 0.21658,-7.98175 0.43316,-37.24494 0.21658,-1.73445 0.21658,16.60869 0.21658,-1.52711 0.21658,17.25159 0.21658,-55.98392 0.21658,-1.28194 0.21659,47.18667 0.21658,-51.4597 0.21658,50.38477 0.21658,-9.48856 0.21658,-22.74794 0.21658,-53.41645 0.64974,75.49579 0.21658,-3.02129 0.21658,10.47953 0.21658,-0.003 0.21658,-15.05369 0.21659,-2.99565 0.21658,-12.15188 0.21658,-22.67798 0.21658,63.66008 0.21658,-14.35416 0.21658,14.35514 0.43316,-27.3798 0.21658,6.80618 0.21658,-2.38537 0.21658,-28.76911 0.64975,14.03147 0.43316,53.37592 0.21658,-15.40064 0.21658,0.011 0.21658,24.74557 0.43316,-35.31547 0.21658,3.51183 0.21658,-2.2551 0.21658,2.09726 0.21658,-35.23959 0.21658,-15.36758 0.21658,31.81854 0.21659,-1.1925 0.21658,-13.62124 0.21658,-35.00316 0.21658,1.23671 0.21658,27.99645 0.21658,7.05336 0.21658,-1.67055 0.21658,-4.84686 0.21658,-31.74357 0.21658,5.93032 0.21658,62.61979 0.21658,22.9458 0.21658,-29.37871 0.21659,-4.77969 0.21658,-8.46633 0.21658,34.73526 0.43316,-18.15545 0.21658,1.04414 0.21658,-30.59539 0.21658,8.50713 0.21658,-35.22497 0.21658,61.15928 0.21658,-42.39322 0.21658,15.12832 0.43317,-12.50342 0.21658,3.71993 0.21658,33.16338 0.21658,-53.64668 0.21658,35.10291 0.21658,-20.25024 0.21658,45.60628 0.21658,-12.78545 0.21658,-0.87392 0.43316,-37.02626 0.43316,-29.96962 0.21658,-0.34349 0.21659,27.31059 0.21658,-12.69813 0.21658,0.25234 0.21658,5.50506 0.21658,-12.93088 0.21658,66.46978 0.21658,6.21679 0.21658,-16.40772 0.64974,40.99398 0.43316,-48.87364 0.21659,-4.65199 0.21658,-0.74931 0.21658,37.93568 0.64974,-41.68187 0.21658,10.30048 0.21658,-1.50995 0.21658,9.76454 0.43316,-54.67656 0.21658,39.50061 0.21658,-7.3373 0.21659,9.42454 0.21658,-5.94642 0.21658,22.38118 0.21658,8.012 0.21658,18.35955 0.21658,-5.12773 0.43316,-91.15113 0.21658,30.23817 0.21658,-15.50382 0.21658,67.79764 0.21658,-15.18952 0.43317,-60.86962 0.21658,6.69016 0.21658,27.68026 0.43316,20.61239 0.21658,-0.60899 0.21658,-1.29843 0.21658,-40.08439 0.21658,1.58975 0.21658,11.10895 0.21658,-14.3837 0.21658,24.85413 0.21658,6.90268 0.21658,29.13398 0.21659,-26.82418 0.21658,0.53591 0.21658,-2.03129 0.21658,9.69237 0.21658,-4.50309 0.21658,-7.45953 0.21658,1.6376 0.21658,30.12054 0.21658,-50.61994 0.21658,20.34173 0.21658,0.70333 0.21658,4.66862 0.21658,-25.15558 0.21659,7.32858 0.43316,-19.33409 0.21658,4.01423 0.43316,-11.34094 0.21658,27.50929 0.21658,-17.82477 0.21658,1.35981 0.21658,-0.47607 0.21658,17.98633 0.21658,36.90387 0.21658,2.27248 0.21658,-17.85313 0.21659,-0.36822 0.21658,46.36635 0.21658,-7.22646 0.43316,-97.17587 0.21658,11.33162 0.43316,40.48482 0.21658,60.12798 0.21658,-11.89023 0.21658,-42.04033 0.21658,-10.50476 0.21659,31.06652 0.21658,-26.76507 0.21658,39.3083 0.21658,-16.87492 0.21658,-2.25461 0.21658,28.91479 0.21658,-18.45501 0.21658,-34.48586 0.21658,44.59331 0.21658,-0.35235 0.21658,42.59197 0.21658,-41.44647 0.21658,-19.15796 0.21658,10.99171 0.21659,-5.77399 0.21658,-17.44383 0.21658,3.13551 0.21658,-22.64433 0.21658,17.5704 0.21658,3.54513 0.21658,36.61547 0.21658,-20.90388 0.21658,-69.37159 0.21658,29.07892 0.21658,6.88837 0.21658,18.64292 0.21658,8.98246 0.21659,-13.79312 0.21658,3.74115 0.21658,13.80116 0.21658,-8.45364 0.21658,-37.50137 0.43316,34.20077 0.21658,-29.96601 0.21658,39.36122 0.21658,8.71385 0.21658,-39.77661 0.21658,19.25987 0.21658,-3.1887 0.21658,4.7881 0.21659,-0.87689 0.21658,-4.7507 0.21658,-14.99369 0.21658,24.9693 0.21658,-9.0561 0.21658,-21.27127 0.21658,1.0741 0.21658,25.95272 0.21658,-45.56453 0.21658,40.24696 0.21658,-1.47249 0.21658,-62.77777 0.21659,63.1014 0.21658,11.67461 0.21658,-23.65081 0.21658,15.43489 0.21658,-38.29137 0.21658,-1.85631 0.21658,49.02558 0.43316,-38.92497 0.21658,47.81544 0.21658,-9.62962 0.21658,7.02589 0.21658,-43.89443 0.21658,-6.11681 0.21659,21.86314 0.43316,-12.04827 0.21658,-22.53631 0.43316,42.31966 0.43316,-30.2319 0.21658,0.82588 0.43316,12.38618 0.21658,-21.28155 0.21658,37.08179 0.21658,-7.17732 0.21659,61.0701 0.21658,-31.48723 0.21658,-50.86034 0.21658,22.54024 0.21658,-50.5925 0.43316,70.19287 0.21658,-7.04169 0.43316,-30.12962 0.21658,27.76199 0.21658,1.8382 0.21658,-7.35115 0.21659,-42.41254 0.21658,57.79305 0.21658,20.29143 0.43316,-82.01622 0.21658,57.34529 0.21658,-43.5209 0.21658,54.85495 0.21658,-37.78306 0.21658,-4.5787 0.21658,34.40555 0.21658,-16.12528 0.21658,-3.6594 0.21659,-7.87788 0.21658,-32.28606 0.43316,21.60814 0.43316,12.55815 0.21658,8.76166 0.43316,35.28426 0.43316,21.29976 0.21658,-37.07157 0.21658,6.70575 0.21658,-67.83162 0.21659,16.68485 0.21658,-1.71047 0.64974,40.03571 0.21658,-22.93236 0.21658,23.56542 0.21658,4.63571 0.21658,-8.37255 0.21658,31.44436 0.21658,-13.77789 0.21658,-34.32266 0.21658,-2.22678 0.21659,20.37716 0.43316,7.87278 0.21658,-34.2595 0.43316,-8.6882 0.21658,-10.24637 0.21658,-1.26971 0.43316,31.69007 0.21658,-13.37107 0.21658,-23.4712 0.21659,30.5243 0.21658,-1.67314 0.21658,47.41038 0.21658,5.11591 0.21658,38.31073 0.21658,-18.40446 0.21658,-3.44384 0.21658,-40.06333 0.21658,48.65078 0.43316,-44.01994 0.21658,-60.37153 0.21658,36.86759 0.21658,-18.64332 0.21658,2.47316 0.21659,-26.15602 0.43316,58.52427 0.21658,-33.46612 0.21658,18.55797 0.43316,-32.37957 0.21658,8.61217 0.21658,39.30181 0.21658,15.38231 0.21658,-43.57781 0.21658,33.24704 0.21658,14.87977 0.21659,-36.43934 0.21658,0.85252 0.21658,7.00072 0.21658,40.32823 0.21658,-54.30128 0.21658,-12.73928 0.21658,-3.85476 0.21658,34.9832 0.21658,-17.35272 0.43316,51.15922 0.43316,-12.26895 0.21659,-30.54198 0.21658,-0.90438 0.21658,52.83191 0.43316,-30.76828 0.21658,15.09302 0.21658,26.2832 0.21658,-47.25523 0.21658,6.93488 0.21658,-13.49024 0.21658,-29.02804 0.21658,7.83321 0.21659,-13.28843 0.21657,4.13631 0.21659,-20.79283 0.21658,73.82918 0.21658,-23.12469 0.21658,9.45189 0.21658,-9.19395 0.21658,42.7079 0.21658,-62.44101 0.21658,3.8147 0.21658,18.96729 0.21658,-14.24476 0.43316,13.98661 0.21658,27.65744 0.21659,-1.03086 0.21658,-23.34779 0.21658,20.69685 0.43316,-68.05667 0.21658,10.70907 0.21658,-24.93723 0.21658,-2.57527 0.43316,42.16423 0.21658,-1.54589 0.21658,-23.64279 0.21658,8.70746 0.21659,27.46609 0.21658,10.47446 0.21658,-27.79878 0.21658,18.70772 0.21658,-32.69896 0.21658,-2.10915 0.43316,45.96489 0.21658,-41.52333 0.21658,36.94046 0.21658,-12.13595 0.21658,13.64047 0.21658,-40.2736 0.21658,26.07766 0.21659,-4.22931 0.21658,-11.77507 0.21658,3.68708 0.43316,61.73166 0.21658,-39.43413 0.21658,-66.51328 0.21658,1.63009 0.21658,25.98885 0.21658,-0.28198 0.21658,-8.51412 0.64975,57.11309 0.21658,-17.36598 0.21658,29.58413 0.21658,-12.09492 0.21658,29.47903 0.21658,-11.0119 0.43316,-53.83605 0.21658,25.2655 0.21658,-13.8337 0.21658,-38.42224 0.21658,12.79206 0.21658,23.33864 0.21659,9.7005 0.21658,-20.98109 0.21658,11.36323 0.21658,-19.06931 0.21658,40.1113 0.21658,15.32541 0.21658,-24.11411 0.21658,-4.57391 0.21658,27.09191 0.21658,0.78371 0.21658,18.70421 0.21658,-26.10652 0.21658,7.55042 0.21658,-0.49027 0.21659,11.20383 0.21658,17.69008 0.21658,-25.39038 0.21658,-4.16983 0.21658,10.27136 0.21658,-42.75414 0.21658,9.60744 0.21658,21.22604 0.21658,38.13638 0.21658,-39.42462 0.21658,17.81078 0.43316,-21.25682 0.21659,5.2802 0.21658,8.19354 0.21658,-20.0338 0.21658,-0.2501 0.21658,28.24897 0.21658,-30.69419 0.21658,20.99466 0.21658,5.03684 0.21658,-15.88463 0.21658,12.97696 0.21658,-26.67154 0.21658,-12.83315 0.21658,20.55555 0.21659,-10.56466 0.21658,38.1766 0.21658,3.17567 0.21658,-29.61277 0.21658,25.53178 0.21658,-26.12885 0.21658,-47.7157 0.21658,15.87093 0.21658,-17.72856 0.21658,2.92449 0.21658,-2.9378 0.21658,70.09996 0.43316,-49.6435 0.21659,17.28897 0.43316,-22.24799 0.21658,58.14086 0.21658,26.55529 0.21658,-45.50771 0.21658,29.67975 0.21658,-41.4667 0.43316,15.06211 0.21658,-38.29333 0.43316,41.42402 0.64975,-62.89067 0.43316,65.3824 0.21658,-29.5597 0.21658,-4.68481 0.21658,31.16427 0.43316,-53.18975 0.21658,24.11643 0.21658,-35.52075 0.43317,42.4798 0.21658,-8.30372 0.21658,-17.28824 0.21658,42.91365 0.43316,-63.611 0.21658,-3.23336 0.43316,63.48091 0.21658,-13.75848 0.21658,32.70913 0.21658,-13.9875 0.21658,-37.82872 0.21659,16.16494 0.21658,2.70132 0.21658,6.1432 0.21658,2.83873 0.21658,-8.61623 0.21658,-13.91256 0.21658,7.55903 0.21658,-27.5583 0.21658,-1.21474 0.21658,-16.6908 0.21658,10.03222 0.21658,28.12417 0.21658,2.10467 0.21658,15.04505 0.21659,-8.72854 0.64974,24.38824 0.21658,0.1759 0.21658,-29.34827 0.21658,61.12663 0.21658,-5.62275 0.21658,-17.50332 0.21658,14.27589 0.21658,-20.11875 0.21658,13.08884 0.21658,-40.21596 0.21659,12.09479 0.21658,-7.89984 0.21658,-22.62835 0.21658,-5.22821 0.21658,33.35578 0.21658,-7.3211 0.21658,49.85732 0.21658,-31.55474 0.21658,-1.98911 0.21658,15.92978 0.21658,-15.72393 0.21658,-33.61405 0.21658,-11.63379 0.21659,2.67798 0.21658,-16.99067 0.21658,53.57622 0.21658,2.61608 0.21658,19.37183 0.21658,-16.37186 0.21658,-27.20619 0.21658,30.64199 0.21658,-7.76496 0.21658,-44.01077 0.21658,24.62629 0.21658,-14.72641 0.21658,33.60292 0.21658,-45.61967 0.21659,59.70084 0.21658,4.33226 0.21658,-14.89913 0.21658,-3.49124 0.21658,18.85563 0.43316,-70.16615 0.43316,51.37209 0.21658,-4.11721 0.21658,32.0815 0.21658,10.33207 0.21658,-44.1194 0.21659,-20.44415 0.21658,31.26401 0.21658,-22.71895 0.43316,69.88663 0.21658,-44.26379 0.21658,1.20786 0.43316,42.509 0.43316,-31.10752 0.21658,0.96988 0.21658,-14.88663 0.21659,8.23103 0.21658,-15.08594 0.21658,-50.65622 0.21658,-17.20176 0.43316,68.44293 0.21658,-3.83182 0.21658,21.71449 0.21658,-2.08869 0.21658,-12.77845 0.21658,-21.3706 0.21658,-0.10204 0.21658,-32.06864 0.21658,36.33492 0.21659,8.06 0.43316,-28.32923 0.21658,-17.64425 0.21658,22.7882 0.21658,1.49044 0.21658,15.97683 0.21658,0.11263 0.21658,-26.94101 0.43316,-16.12951 0.21658,14.47603 0.21658,-6.28771 0.21659,12.56811 0.21658,39.79554 0.21658,-11.79758 0.21658,-63.83037 0.43316,81.04653 0.21658,-19.71474 0.21658,4.33304 0.21658,10.37384 0.21658,34.03399 0.21658,-17.98474 0.21658,10.11602 0.21658,-27.47924 0.21659,-0.84933 0.21658,-12.08315 0.21658,3.62666 0.21658,6.02291 0.21658,-11.46402 0.21658,9.14464 0.21658,24.47324 0.21658,7.67791 0.21658,-17.85771 0.43316,14.93189 0.21658,-37.71015 0.21658,43.39153 0.21658,-44.02705 0.21659,7.94514 0.21658,-1.77403 0.43316,-18.21116 0.21658,21.30917 0.21658,9.50457 0.21658,-43.03137 0.43316,47.89751 0.21658,-2.86632 0.21658,1.83 0.21658,-19.68843 0.21658,-4.28722 0.21659,-17.76482 0.21658,17.13126 0.21658,-20.05096 0.21658,34.23357 0.64974,-47.101 0.21658,13.2786 0.21658,-19.58795 0.21658,28.35559 0.21658,-12.09649 0.21658,-21.16003 0.43317,38.00495 0.21658,-19.40364 0.21658,31.95773 0.21658,-13.31732 0.21658,28.17739 0.21658,5.57843 0.43316,-44.80656 0.21658,27.27424 0.21658,-12.83746 0.21658,27.16945 0.43316,-11.07336 0.21658,-31.76272 0.21659,-7.59224 0.21658,-30.70061 0.21658,-12.54008 0.43316,71.86504 0.21658,5.16164 0.21658,-17.36816 0.21658,8.70084 0.21658,1.97785 0.21658,14.69306 0.21658,5.14738 0.21658,-1.90629 0.21659,-10.50081 0.21658,15.67175 0.21658,-34.39517 0.21658,19.37811 0.21658,-30.15684 0.21658,-12.63379 0.21658,41.90508 0.21658,0.72323 0.21658,-20.46132 0.21658,70.20079 0.21658,-30.99305 0.21658,-4.57214 0.21658,-14.36831 0.21658,-0.17726 0.21659,-27.9135 0.21658,60.31016 0.21658,-39.23856 0.21658,-1.01457 0.21658,-21.98232 0.21658,27.76851 0.21658,45.82033 0.21658,-7.52015 0.21658,-45.75606 0.21658,2.46701 0.21658,27.19704 0.21658,-3.72319 0.21658,19.66317 0.21658,-28.97973 0.43317,33.04342 0.21658,-57.77492 0.21658,1.22314 0.21658,17.92237 0.86632,-24.08397 0.21658,4.67754 0.43316,-21.76045 0.21659,38.59402 0.21658,-28.24293 0.21658,8.54263 0.21658,-14.91697 0.21658,25.58848 0.21658,-14.69815 0.21658,-23.05782 0.21658,7.75765 0.21658,-8.71703 0.21658,-25.64909 0.21658,49.72614 0.21658,-65.77615 0.21658,33.61918 0.21658,-4.60722 0.21659,16.37257 0.21658,-0.33672 0.43316,17.07032 0.21658,-15.26907 0.43316,18.82007 0.21658,8.79745 0.21658,-18.47131 0.21658,10.19596 0.43316,45.5572 0.21658,-31.94469 0.21658,-7.63528 0.21659,17.07146 0.21658,-6.02342 0.21658,-18.75375 0.64974,48.73882 0.21658,-14.6981 0.21658,-47.80289 0.21658,-14.4586 0.21658,22.42125 0.21658,7.95353 0.21658,29.84714 0.21659,-6.8181 0.43316,-5.34841 0.21658,-27.97995 0.21658,-0.66977 0.21658,3.08221 0.21658,-8.99203 0.21658,-1.92327 0.21658,-4.75514 0.21658,40.11347 0.21658,-2.6304 0.21658,-14.06626 0.21658,31.30464 0.43317,12.78214 0.21658,-16.66526 0.21658,5.23882 0.21658,23.84304 0.43316,-27.99618 0.21658,4.66522 0.21658,-42.66684 0.21658,17.18403 0.21658,0.75739 0.21658,-7.2962 0.21658,7.26172 0.21658,22.55517 0.21659,-3.493 0.21658,24.86523 0.21658,9.39071 0.21658,-25.9652 0.21658,34.9555 0.21658,-53.6727 0.21658,-1.75977 0.21658,3.51407 0.21658,35.32646 0.21658,-31.06274 0.21658,3.47487 0.21658,-6.87808 0.43317,12.72846 0.43316,-28.8341 0.21658,2.29526 0.21658,34.62096 0.21658,-36.38279 0.21658,22.27947 0.21658,-9.26529 0.21658,-21.82377 0.43316,41.61057 0.21658,-37.13038 0.21658,14.92607 0.43317,63.81589 0.21658,-18.17959 0.21658,-34.32124 0.21658,7.14753 0.21658,-14.7518 0.21658,9.53284 0.21658,57.72957 0.21658,18.86563 0.21658,-92.62344 0.21658,23.44221 0.21658,-61.70743 0.21658,-7.78679 0.21659,47.3255 0.21658,-2.00695 0.21658,-19.5186 0.21658,-43.89095 0.21658,47.19184 0.21658,-3.31077 0.21658,5.77977 0.21658,-32.53586 0.43316,49.71514 0.21658,-6.79747 0.21658,21.76225 0.43316,58.33015 0.21659,-24.35349 0.21658,-48.49938 0.21658,29.39066 0.21658,-13.54639 0.21658,-5.32607 0.21658,-39.89657 0.43316,46.83511 0.21658,-12.18623 0.21658,7.08207 0.21658,14.96867 0.21658,30.88206 0.21658,-73.25797 0.21658,-5.32616 0.21659,-62.40506 0.21658,46.60343 0.21658,16.31415 0.21658,-4.37797 0.21658,16.55343 0.21658,7.34381 0.21658,47.59158 0.21658,-72.0132 0.21658,-7.48642 0.21658,-1.18632 0.21658,49.20963 0.43317,-35.66925 0.21658,8.99982 0.21658,-13.8185 0.43316,34.76864 0.21658,-1.89136 0.43316,-42.3519 0.21658,-8.1192 0.21658,40.63389 0.21658,-4.5945 0.21658,-34.55661 0.21658,22.3832 0.21658,5.45182 0.21659,19.80811 0.21658,-11.62437 0.21658,-0.71606 0.21658,-16.7328 0.43316,33.29127 0.21658,-11.57194 0.21658,-5.45402 0.21658,37.06632 0.21658,-47.04398 0.21658,-1.47661 0.43316,-23.67067 0.21658,28.33923 0.21659,-28.49254 0.21658,21.84026 0.21658,-14.55793 0.21658,9.69618 0.21658,17.30872 0.21658,4.71757 0.21658,-11.21417 0.21658,35.18743 0.21658,8.20747 0.21658,16.31871 0.21658,-59.12303 0.21658,33.859 0.21659,2.98954 0.21658,7.46928 0.21658,-48.87223 0.21658,33.58837 0.21658,-30.06551 0.21658,50.43315 0.21658,-51.98349 0.21658,24.35854 0.21658,-39.55948 0.21658,-12.07427 0.21658,32.88723 0.21658,-0.0736 0.21658,-0.3023 0.21658,-55.54063 0.43317,65.60511 0.21658,-45.6422 0.21658,6.43881 0.21658,12.03209 0.21658,28.11178 0.21658,-24.64236 0.21658,2.98851 0.21658,-32.32976 0.43316,28.62849 0.21658,-15.89951 0.21658,12.23592 0.21658,-16.1985 0.43317,33.26149 0.21658,-7.653 0.21658,18.68742 0.21658,7.02387 0.21658,20.69999 0.21658,-15.55888 0.21658,3.50039 0.21658,-25.74358 0.21658,8.58473 0.21658,-10.46787 0.21658,46.73716 0.21659,-23.14743 0.21658,27.79622 0.64974,-35.34104 0.21658,25.71634 0.21658,-32.74948 0.21658,25.0139 0.21658,-56.01433 0.21658,6.23389 0.21658,19.261 0.21658,-12.36399 0.21658,-27.56105 0.21658,21.32316 0.21659,-19.68077 0.43316,60.05538 0.43316,-26.42155 0.21658,-20.55646 0.21658,7.68265 0.21658,20.51436 0.43316,-13.26304 0.21658,-26.31872 0.21658,-1.26615 0.21658,2.96902 0.21658,20.71601 0.21659,-25.66917 0.21658,17.9809 0.21658,37.53743 0.21658,-19.97043 0.21658,56.97782 0.21658,-39.22948 0.43316,59.9028 0.21658,-30.46748 0.21658,-51.74539 0.21658,0.94656 0.21658,7.35989 0.21659,3.27965 0.21658,31.93822 0.21658,-4.69112 0.21658,-25.0445 0.21658,-4.1533 0.21658,-0.28168 0.21658,9.50139 0.21658,26.11597 0.21658,2.07421 0.21658,-19.78163 0.21658,3.77645 0.21658,-16.97877 0.21658,10.92731 0.21658,-32.03689 0.43317,18.61338 0.21658,27.35991 0.21658,-4.85988 0.21658,6.52467 0.21658,-42.59578 0.21658,48.98801 0.21658,-1.3779 0.21658,-20.45173 0.21658,30.44001 0.21658,-31.16156 0.21658,10.42109 0.21658,-11.077 0.21658,-41.35719 0.21659,1.47417 0.21658,57.46638 0.21658,-42.67302 0.21658,6.48317 0.21658,-23.2484 0.21658,23.47496 0.21658,-16.36461 0.21658,5.36043 0.21658,-27.34103 0.21658,50.44721 0.21658,10.77171 0.21658,-32.59425 0.21659,-2.9138 0.64974,69.01121 0.21658,-14.00782 0.21658,15.74169 0.43316,-28.16648 0.21658,-6.50884 0.21658,35.17805 0.43316,-79.50828 0.21658,28.87977 0.21658,44.31306 0.43317,-16.31 0.21658,38.22254 0.21658,-23.6898 0.21658,28.33772 0.64974,-26.71179 0.21658,4.23602 0.21658,-31.83428 0.21658,30.87644 0.21658,-13.51202 0.21658,24.83577 0.21658,1.59817 0.21659,-25.84411 0.21658,35.99386 0.21658,-42.35207 0.21658,40.63243 0.21658,-31.21667 0.21658,7.66173 0.21658,14.24789 0.21658,-4.35393 0.21658,5.62378 0.21658,-16.57762 v 0"
           style="fill:none;stroke:#1f77b4;stroke-width:1.5;stroke-linecap:square"
           id="path148" />
      </g>
      <g
         id="line2d_15">
        <path
           clip-path="url(#p27500dee21)"
           d="m 73.832727,146.12033 0.216581,-1.57776 0.216581,4.17583 0.216581,-19.31946 0.21658,23.03895 0.433162,70.72679 0.216581,-18.176 0.21658,9.69419 0.216581,0.0716 0.216581,-8.59776 0.216581,12.97977 0.21658,-29.2897 0.433162,69.03287 0.433161,-67.30327 0.649743,-61.67224 0.21658,22.60667 0.216581,40.077 0.216581,-6.43593 0.216581,12.49898 0.21658,-20.3252 0.216581,35.45422 0.216581,-0.11931 0.216581,-8.37544 0.21658,17.16968 0.216581,2.08313 0.216581,-0.43078 0.216581,-48.34965 0.21658,4.69826 0.433162,21.11663 0.216581,-1.891 0.21658,33.28992 0.216581,-7.14956 0.216581,-27.25787 0.433161,3.53772 0.433162,32.40875 0.216581,-8.35727 0.21658,-45.70677 0.433162,17.22971 0.216581,2.68898 0.21658,-3.25264 0.216581,17.74369 0.216581,-26.89244 0.216581,0.19719 0.21658,-5.53444 0.216581,9.37672 0.433162,-56.49598 0.21658,41.0401 0.216581,-6.85904 0.216581,9.05561 0.216581,-1.99069 0.433161,38.73299 0.433162,-30.35477 0.21658,44.06833 0.216581,-31.85638 0.216581,4.09057 0.216581,-24.08722 0.21658,72.51908 0.216581,-19.24653 0.216581,-2.26514 0.216581,-13.57125 0.21658,5.30644 0.216581,-40.72979 0.216581,60.6796 0.433161,-63.32446 0.216581,25.01625 0.216581,-10.19965 0.433161,11.86383 0.216581,-2.74916 0.216581,2.38557 0.433161,-31.58584 0.216581,14.77078 0.216581,1.62813 0.216581,3.70001 0.433161,31.65353 0.216581,-18.60776 0.216581,-73.36368 0.433161,39.85765 0.216581,-2.90035 0.216581,-16.41434 0.21658,21.04459 0.216581,1.78897 0.216581,10.69353 0.216581,-47.18386 0.21658,44.87267 0.216581,13.33347 0.216581,-6.27973 0.216581,-22.28898 0.433161,61.2991 0.216581,-48.7396 0.216581,54.43785 0.433161,-48.2429 0.216581,20.56251 0.216581,-48.77946 0.21658,69.94153 0.216581,-45.14807 0.216581,-84.013937 0.216581,61.615047 0.21658,12.72464 0.216581,-21.66957 0.216581,59.0241 0.216581,2.05792 0.21658,-19.25915 0.216583,7.41831 0.21658,24.73632 0.21658,-21.79083 0.21658,0.51036 0.21658,-11.52656 0.21658,7.26778 0.21658,-49.25083 0.21658,41.14533 0.21658,-16.13483 0.21659,52.44605 0.21658,-24.74218 0.21658,25.49905 0.21658,-32.15937 0.21658,20.81166 0.21658,-9.69475 0.21658,-0.55713 0.21658,-0.24584 0.21658,-12.74465 0.21658,1.91542 0.43316,27.16581 0.21658,-45.98548 0.21659,-18.99575 0.21657,70.55297 0.21659,-40.88883 0.21658,12.59722 0.21658,-22.96385 0.21658,41.15138 0.21658,10.37848 0.21658,-27.47967 0.21658,-1.30224 0.21658,5.31053 0.21658,-22.27617 0.21658,-4.51419 0.43316,59.64613 0.21658,-18.58421 0.21659,-35.59222 0.21658,-1.28034 0.21658,-7.25945 0.21658,-14.87635 0.21658,11.71253 0.21658,-3.85475 0.21658,-32.49879 0.21658,35.73942 0.21658,0.23497 0.21658,24.06566 0.21658,0.65104 0.21658,-9.08012 0.21659,21.25351 0.21658,-32.28927 0.43316,51.36033 0.21658,-14.73377 0.21658,6.45988 0.21658,10.67447 0.21658,0.67702 0.21658,58.80192 0.43316,-59.13218 0.21658,10.98695 0.43317,-67.05672 0.21657,10.63339 0.21659,-5.21616 0.21658,-8.58133 0.21658,16.51547 0.21658,6.62603 0.43316,30.15329 0.21658,-22.42568 0.21658,4.97881 0.21658,-21.99679 0.21658,24.66868 0.21658,-9.27012 0.21658,-54.44193 0.21658,0.45119 0.21659,47.34215 0.21658,-39.6864 0.21658,47.88865 0.21658,-0.47887 0.21658,31.696 0.21658,-14.54987 0.21658,14.70645 0.21658,-26.98428 0.21658,57.34206 0.21658,1.58986 0.43316,-55.96385 0.21658,13.12198 0.21659,-33.02347 0.21658,12.10158 0.21658,28.17994 0.43316,-55.67346 0.21658,4.0155 0.43316,-22.44566 0.21658,17.05024 0.21658,-2.88152 0.21658,0.47153 0.21658,32.6416 0.21659,-11.01064 0.21658,-39.2846 0.21658,26.76937 0.21658,-5.23912 0.21658,-0.67363 0.21658,10.53087 0.21658,3.83936 0.21658,10.9652 0.21658,-10.86167 0.21658,35.96463 0.21658,16.17644 0.43316,-78.10701 0.43316,23.78546 0.21659,-16.11008 0.21658,8.42091 0.43316,-8.54476 0.21658,17.42608 0.21658,-33.60881 0.43316,-10.11967 0.21658,16.78933 0.21658,-14.1603 0.21658,18.6563 0.21658,-3.96436 0.21658,27.33808 0.43317,17.80997 0.21658,0.70992 0.21658,1.74583 0.43316,-21.72127 0.21658,6.83383 0.21658,-15.31225 0.21658,24.01382 0.21658,-16.37068 0.21658,33.85347 0.21658,-5.38337 0.43316,16.97325 0.21659,-31.00134 0.43316,27.51803 0.21658,-9.07767 0.43316,-52.36994 0.64974,29.87528 0.21658,47.59965 0.21658,-9.10835 0.21658,-47.24334 0.21658,5.83895 0.21659,-4.15441 0.43316,42.41368 0.21658,-32.32285 0.21658,9.50877 0.21658,-43.0986 0.21658,4.27142 0.21658,-16.70348 0.21658,18.40366 0.21658,-17.54916 0.21658,50.55296 0.21658,-54.52793 0.21658,11.25015 0.21659,-17.83509 0.21658,-2.61036 0.21658,18.68156 0.43316,16.08999 0.21658,-1.12195 0.21658,-49.62428 0.21658,42.51838 0.21658,1.45951 0.21658,15.49505 0.21658,47.05505 0.21658,-17.38051 0.21658,-28.55286 0.21659,25.34695 0.21658,10.53176 0.21658,-1.14492 0.21658,-7.03366 0.21658,-17.30224 0.21658,6.13209 0.21658,-44.43303 0.21658,28.21209 0.21658,12.50732 0.64974,-25.90853 0.21658,43.60026 0.21658,-4.61369 0.21659,12.33028 0.21658,-17.61513 0.21658,3.36354 0.21658,14.51376 0.21658,-0.12154 0.21658,2.75466 0.43316,-12.81182 0.21658,-13.72616 0.21658,18.44362 0.21658,-1.86468 0.21658,10.38001 0.21658,18.85478 0.21659,-54.73885 0.21658,26.85012 0.21658,-15.39049 0.21658,4.29208 0.21658,-0.43195 0.43316,-39.62218 0.21658,52.30381 0.21658,6.32988 0.21658,-12.92522 0.21658,-24.29009 0.21658,-73.71641 0.21658,19.19293 0.21659,39.05642 0.21658,15.88645 0.21658,-17.44917 0.21658,-4.36918 0.21658,-42.45442 0.21658,27.03297 0.21658,73.6075 0.21658,-36.50132 0.21658,-7.00364 0.21658,-58.18923 0.43316,31.49738 0.21658,-15.4084 0.43317,54.88628 0.21658,-14.70505 0.21658,27.48053 0.21658,-24.27382 0.21658,16.03168 0.21658,-20.04715 0.21658,15.39748 0.21658,-11.93957 0.21658,45.21995 0.21658,-3.12487 0.21658,13.02264 0.43316,-66.42849 0.64975,95.49883 0.21658,-42.52887 0.43316,18.88861 0.21658,-47.74987 0.21658,28.16336 0.21658,-29.52938 0.21658,31.55972 0.21658,-23.92282 0.21658,12.79378 0.21658,-32.15811 0.21659,20.82244 0.21658,5.78036 0.21658,23.16286 0.21658,-10.30834 0.21658,-33.53729 0.21658,-3.41318 0.21658,19.54833 0.21658,6.55992 0.21658,19.35638 0.21658,-43.37697 0.21658,45.03415 0.21658,-23.83567 0.21658,-65.95394 0.21658,-3.27586 0.21659,23.80648 0.21658,38.39671 0.43316,37.18388 0.21658,-43.83183 0.21658,-17.70083 0.21658,57.66037 0.21658,-19.15958 0.21658,2.89132 0.21658,-1.05672 0.21658,-6.21694 0.21658,-9.68227 0.21658,2.90514 0.21659,-23.26379 0.21658,46.45592 0.21658,12.16695 0.21658,-18.16195 0.21658,18.97746 0.21658,-13.55748 0.21658,0.18425 0.21658,-32.82646 0.21658,4.88139 0.21658,52.68249 0.21658,23.17433 0.43316,-57.37985 0.21659,-0.56757 0.21658,35.58519 0.43316,-25.05453 0.21658,12.90023 0.43316,-39.59436 0.43316,48.08164 0.21658,-19.38828 0.43316,51.80028 0.21658,-59.35965 0.21658,-10.26883 0.21659,24.82069 0.21658,-17.22574 0.43316,10.75702 0.43316,-27.50858 0.21658,30.39236 0.21658,-18.01723 0.21658,8.91968 0.21658,-2.90296 0.21658,8.94979 0.21658,-33.20151 0.21658,11.58866 0.43317,-64.71498 0.21658,54.69875 0.21658,17.42739 0.21658,-19.21651 0.21658,-42.27227 0.21658,-6.66184 0.43316,21.64199 0.21658,36.14978 0.21658,-33.73241 0.21658,41.92661 0.21658,6.332 0.21659,-25.27271 0.21658,29.0985 0.21658,-7.29664 0.21658,-18.14538 0.21658,10.79053 0.21658,1.52346 0.21658,-20.38539 0.21658,-5.19504 0.21658,16.28329 0.21658,-22.17484 0.21658,-2.62738 0.21658,41.30994 0.21658,-2.69205 0.21658,20.80096 0.21659,-30.1104 0.21658,48.19651 0.21658,-26.99564 0.21658,-51.28801 0.21658,-1.50675 0.21658,55.34045 0.21658,-33.91999 0.21658,19.70582 0.21658,-4.90571 0.43316,14.74297 0.21658,-10.65645 0.21658,4.1201 0.21659,-14.732 0.21658,17.47521 0.21658,-6.11244 0.21658,-29.9376 0.21658,6.80747 0.21658,40.24687 0.21658,-29.40607 0.21658,-2.33129 0.21658,0.49632 0.21658,31.61548 0.21658,-25.62756 0.21658,-53.30188 0.21658,-9.25869 0.21659,20.35488 0.21658,39.57247 0.21658,2.1581 0.21658,11.83973 0.43316,-31.13288 0.21658,15.99447 0.43316,-36.65025 0.21658,63.705 0.21658,-29.85919 0.21658,-10.83618 0.21658,13.37515 0.21659,41.27197 0.21658,-33.10314 0.21658,-4.32953 0.21658,-18.96351 0.21658,26.6168 0.21658,-16.68702 0.21658,-32.13703 0.43316,41.0855 0.21658,-29.8291 0.21658,55.3111 0.21658,-44.97006 0.21658,34.01939 0.21658,-53.28741 0.21659,7.15348 0.21658,33.74823 0.21658,-0.10664 0.21658,-29.70814 0.21658,-10.04491 0.43316,11.99294 0.21658,-5.25759 0.21658,-46.06983 0.21658,36.51279 0.21658,-16.78214 0.21658,32.99583 0.21658,-1.46251 0.21659,7.10411 0.21658,11.57132 0.21658,-7.16745 0.43316,-18.67553 0.21658,12.32068 0.21658,20.99763 0.43316,-67.51808 0.21658,13.78206 0.21658,21.30529 0.21658,-0.1035 0.21658,57.34489 0.21658,8.79816 0.21659,-17.70227 0.43316,8.56917 0.21658,-31.61681 0.21658,-10.46927 0.21658,22.30205 0.21658,-12.38421 0.21658,9.2018 0.21658,-0.31026 0.21658,-34.20824 0.43316,67.50434 0.43317,11.86796 0.21658,-10.31775 0.21658,-54.04516 0.21658,-7.30989 0.21658,45.83092 0.21658,-49.0556 0.21658,38.4478 0.43316,-26.74588 0.21658,17.33716 0.21658,-30.67872 0.43316,7.89444 0.21659,0.89737 0.21658,-0.5293 0.43316,53.79046 0.21658,-72.35981 0.21658,8.892 0.64974,46.59494 0.21658,-29.0899 0.21658,20.25414 0.21658,-40.34286 0.43317,26.32132 0.21658,-1.95767 0.21658,-58.36226 0.21658,-24.4764 0.21658,8.03314 0.21658,38.04498 0.21658,8.11772 0.21658,-33.20841 0.21658,34.61725 0.21658,-14.29043 0.21658,4.37786 0.21658,0.56095 0.21658,17.63142 0.21658,72.37034 0.21659,-40.87274 0.21658,-2.79318 0.43316,-20.65183 0.21658,13.32431 0.21658,-5.19398 0.43316,21.22578 0.21658,-3.42686 0.21658,-29.12049 0.21658,9.28763 0.21658,-20.30677 0.21659,14.09747 0.43316,-46.67096 0.21658,19.38948 0.21658,-24.05449 0.21658,53.15961 0.21658,-23.01394 0.21658,42.75377 0.21658,-23.11046 0.21658,15.31826 0.21658,-0.5297 0.21658,21.75429 0.21658,-30.30545 0.21658,-11.99977 0.21659,-19.07488 0.21658,6.99569 0.43316,-15.41537 0.21658,-7.97677 0.21658,-0.5596 0.21658,18.83197 0.21658,-28.30548 0.21658,51.0567 0.43316,30.69767 0.21658,-43.66483 0.43316,71.56923 0.43317,-31.12939 0.21658,27.30213 0.21658,-32.65858 0.43316,26.26546 0.21658,-20.98905 0.21658,13.79813 0.43316,-43.00181 0.21658,-1.76989 0.21658,16.34561 0.21658,-1.56357 0.21659,7.22741 0.21658,33.12373 0.21658,-21.31395 0.21658,-55.73682 0.21658,32.98322 0.21658,-8.50734 0.21658,-29.67256 0.43316,56.71441 0.21658,26.06831 0.21658,-61.61376 0.21658,41.01358 0.21658,-12.85419 0.21659,11.19936 0.21658,-5.74939 0.43316,33.36136 0.21658,-9.36665 0.21658,-49.35865 0.43316,73.64414 0.21658,-15.62195 0.21658,21.9678 0.21658,-37.0669 0.21658,11.90423 0.21658,0.95279 0.21658,-27.39313 0.21659,-3.20587 0.21658,-11.98709 0.21658,56.55565 0.21658,-88.07976 0.21658,25.38559 0.21658,-15.73657 0.21658,49.31228 0.21658,19.91353 0.21658,-26.39753 0.21658,1.01003 0.21658,-16.62333 0.21658,-43.70924 0.21658,42.92378 0.21659,-2.55666 0.21658,-15.0132 0.21658,21.77186 0.21658,-4.94906 0.21658,1.93313 0.21658,0.75636 0.21658,-4.56496 0.21658,9.28944 0.21658,-36.33824 0.21658,0.0846 0.21658,29.34908 0.21658,3.04471 0.21659,-0.38621 0.21658,9.20558 0.21658,36.36374 0.21658,-18.41206 0.21658,18.61778 0.21658,-7.82555 0.21658,-27.57882 0.21658,-3.56708 0.21658,39.14119 0.21658,-24.40505 0.21658,-7.8552 0.21658,19.27286 0.21658,-23.62977 0.21658,23.72416 0.21658,-2.76119 0.21659,-17.09213 0.21658,17.39228 0.21658,-0.84661 0.21658,11.91395 0.21658,-58.6965 0.21658,-5.46385 0.21658,68.35881 0.21658,-22.87099 0.21658,-5.02487 0.21658,-9.69659 0.21658,-22.06849 0.21658,-0.95521 0.21658,6.89727 0.21659,-17.20295 0.21658,35.44299 0.21658,-28.80364 0.21658,11.48601 0.21658,-12.14558 0.21658,18.96356 0.21658,-4.7996 0.21658,-27.35471 0.21658,6.93516 0.21658,11.93193 0.21658,-7.52462 0.21658,-16.72832 0.21658,8.1447 0.21659,23.04076 0.21658,-10.82285 0.21658,-33.38985 0.43316,23.20539 0.64974,18.1531 0.21658,6.32211 0.21658,15.98858 0.43316,-90.06611 0.43316,66.36478 0.43317,25.4086 0.21658,-32.80509 0.21658,42.67922 0.21658,-25.44741 0.21658,22.293 0.21658,-13.32033 0.21658,17.31218 0.21658,-52.09127 0.21658,30.04126 0.21658,-12.65016 0.21658,23.71914 0.21658,-32.62291 0.21659,27.86997 0.21658,8.04145 0.21658,-2.97637 0.21658,-38.2973 0.21658,4.79477 0.43316,-19.5556 0.21658,7.01539 0.43316,39.63594 0.21658,-0.39672 0.21658,0.85846 0.21658,-28.82738 0.21659,30.2601 0.21658,11.37013 0.21658,-29.83036 0.21658,-8.36423 0.21658,4.74482 0.21658,18.6463 0.43316,-33.41231 0.21658,-10.12641 0.21658,9.1367 0.21658,24.66951 0.21658,-1.33083 0.21658,43.53778 0.43317,-87.07347 0.21658,-19.39665 0.21658,-7.89871 0.21658,5.9503 0.21658,12.73834 0.21658,-2.47146 0.21658,17.06014 0.21658,36.72661 0.21658,-29.32921 0.21658,11.31193 0.43316,35.35656 0.43317,-36.34711 0.21658,40.7148 0.21658,1.7172 0.21658,-8.53208 0.43316,16.44106 0.21658,-0.087 0.21658,-9.76019 0.21658,7.10894 0.21658,-20.00876 0.21658,-0.88467 0.21658,-8.59506 0.21658,53.55259 0.21659,-20.65306 0.21658,-0.31659 0.21658,-28.42505 0.21658,9.57583 0.21658,38.61767 0.21658,-47.34906 0.21658,-14.10101 0.21658,16.36249 0.21658,-25.4664 0.21658,17.77886 0.21658,2.22723 0.21658,7.20384 0.21658,13.5535 0.21658,-27.70755 0.21659,-5.08855 0.21658,24.1136 0.21658,6.6983 0.21658,-16.32463 0.21658,-2.53432 0.21658,-17.75591 0.21658,28.26588 0.21658,-1.93262 0.21658,30.08238 0.43316,-25.20976 0.21658,0.25072 0.21658,5.91989 0.21659,18.5069 0.21658,0.95925 0.21658,-10.52514 0.21658,-77.53123 0.21658,62.09836 0.21658,25.77009 0.21658,-26.81333 0.21658,8.6656 0.21658,3.02617 0.21658,5.75329 0.21658,-44.81691 0.21658,19.48063 0.21658,-17.63439 0.21659,-46.20103 0.21658,28.83563 0.21658,-27.68069 0.64974,77.07846 0.21658,-7.94398 0.21658,17.32967 0.21658,-15.86614 0.43316,20.58744 0.43316,-14.34733 0.21658,-26.96746 0.21659,34.64617 0.21658,-43.81504 0.21658,27.47551 0.43316,-32.27359 0.21658,1.64112 0.21658,0.43049 0.21658,21.47917 0.21658,6.6653 0.21658,-11.91292 0.43316,62.82748 0.43317,-62.31253 0.21658,4.75531 0.21658,-10.99933 0.21658,-17.73482 0.21658,4.92215 0.21658,-17.33881 0.21658,59.41196 0.21658,-32.91893 0.21658,-14.12846 0.21658,30.35672 0.21658,-43.75809 0.43316,-25.20359 0.64975,35.52847 0.21658,59.68775 0.21658,-0.88684 0.43316,-12.09796 0.21658,6.92539 0.21658,-18.83812 0.21658,3.01612 0.21658,40.93385 0.21658,-40.97451 0.21658,1.39818 0.64975,-24.76384 0.21658,28.72025 0.21658,10.43459 0.21658,-31.53008 0.21658,-4.78793 0.21658,-14.58121 0.21658,-27.67797 0.43316,43.2874 0.21658,-5.14905 0.21658,17.59126 0.21658,5.96943 0.21659,15.70657 0.21658,-14.04941 0.21658,-31.63851 0.21658,22.42627 0.21658,-27.7096 0.21658,60.43691 0.21658,-9.30158 0.21658,-21.74111 0.21658,11.69941 0.43316,-78.66609 0.21658,41.48533 0.43317,33.89617 0.21658,-25.1416 0.21658,11.08069 0.21658,-7.86717 0.21658,11.78365 0.21658,-4.61522 0.21658,46.54712 0.21658,-33.13631 0.21658,-61.95167 0.21658,35.0621 0.21658,-6.05062 0.21658,-33.47854 0.21658,46.59792 0.21659,21.10968 0.21658,-22.19904 0.21658,30.4022 0.43316,24.38465 0.21658,-69.04526 0.21658,27.69026 0.21658,-4.86225 0.21658,-16.99922 0.21658,7.94831 0.21658,-6.87304 0.21658,18.05208 0.21658,-2.62338 0.21658,27.66687 0.21659,-21.19019 0.21658,14.13451 0.21658,-25.35003 0.21658,2.43702 0.21658,43.52479 0.21658,-31.4338 0.21658,27.19345 0.21658,8.1962 0.21658,2.21312 0.21658,3.50227 0.21658,-48.15059 0.21658,-6.93992 0.21658,41.58534 0.43317,-40.57006 0.21658,16.39257 0.21658,-24.3835 0.43316,58.57631 0.21658,-23.13848 0.21658,75.13983 0.21658,-15.79281 0.21658,0.11618 0.21658,-9.65398 0.21658,-39.82958 0.21658,16.32678 0.21659,0.13896 0.21658,-35.91218 0.21658,10.94106 0.21658,-13.5406 0.21658,2.81225 0.21658,21.83614 0.21658,4.15082 0.21658,-43.87522 0.21658,41.14603 0.21658,-36.80698 0.21658,-8.65424 0.21658,-3.88456 0.21658,2.07225 0.21658,-38.98757 0.21659,-9.16498 0.21658,1.17484 0.21658,14.26856 0.21658,25.57899 0.21658,-35.78893 0.21658,30.13862 0.21658,-0.87084 0.21658,-3.85333 0.21658,10.77073 0.21658,-5.1361 0.21658,-49.38764 0.64975,83.40962 0.21658,-23.17242 0.21658,65.71288 0.21658,-2.3437 0.21658,-31.39135 0.21658,5.41301 0.21658,-30.01608 0.43316,21.05355 0.21658,28.61507 0.21658,-9.235 0.21658,35.87713 0.21658,-55.19402 0.21659,2.88008 0.43316,-51.67834 0.21658,1.00413 0.21658,15.98837 0.21658,-1.21576 0.21658,14.79955 0.43316,-14.22451 0.64974,14.52667 0.21658,-15.19803 0.21658,30.79892 0.21659,-43.43401 0.21658,-5.27564 0.21658,39.16308 0.21658,16.75116 0.21658,33.34148 0.43316,-29.35201 0.21658,26.89161 0.21658,-19.88132 0.21658,8.19897 0.43316,-14.66281 0.21658,13.70336 0.21659,-12.33432 0.21658,-20.40817 0.21658,4.10093 0.21658,-39.28837 0.21658,27.59791 0.21658,-1.41163 0.21658,39.40715 0.21658,-5.14617 0.43316,-22.62077 0.43316,7.92163 0.21658,28.6634 0.21659,-36.76781 0.43316,24.49653 0.43316,-79.68151 0.43316,86.65379 0.21658,6.15226 0.43316,-72.89014 0.21658,-2.15783 0.21658,41.58451 0.21658,-62.10784 0.21658,52.07438 0.21659,-26.52984 0.21658,18.26609 0.21658,3.74889 0.21658,8.57701 0.21658,1.07088 0.21658,-0.71077 0.21658,-68.89588 0.21658,25.52337 0.21658,-23.00431 0.43316,33.10034 0.21658,-0.63848 0.21659,31.52725 0.21658,-5.92702 0.43316,-45.55351 0.21658,-64.299669 0.43316,129.970669 0.43316,-50.2725 0.21658,-46.56315 0.21658,9.66727 0.21658,-10.62166 0.21658,34.43319 0.21658,-36.13123 0.21659,-1.40536 0.21658,-18.990461 0.43316,94.304461 0.21658,1.58391 0.21658,6.5121 0.21658,-28.26639 0.21658,24.73525 0.21658,-18.85528 0.21658,43.18885 0.21658,-31.91896 0.21658,4.30308 0.21658,-26.31414 0.21658,16.37007 0.21659,-11.50017 0.21658,18.89143 0.21658,-1.34144 0.43316,10.04286 0.21658,-44.37056 0.21658,31.70004 0.21658,12.32575 0.21658,-31.35257 0.21658,-2.37304 0.21658,-25.0274 0.21658,21.85609 0.21659,-0.76567 0.43316,50.144 0.43316,-80.27964 0.21658,-1.92223 0.21658,-22.61273 0.21658,31.12677 0.21658,-10.66848 0.21658,40.86603 0.21658,-5.52993 0.21658,-14.26322 0.21658,62.00501 0.21658,-34.46839 0.21659,24.49303 0.43316,-67.07667 0.21658,-23.29946 0.21658,31.44244 0.21658,-0.026 0.43316,70.347 0.43316,-21.40666 0.21658,7.76259 0.21658,-3.46062 0.21658,-0.12947 0.64975,-44.56327 0.21658,-33.42768 0.21658,48.99793 0.21658,-1.16041 0.21658,-12.24609 0.21658,4.5267 0.21658,-46.25819 0.21658,47.72227 0.43316,44.54979 0.21658,-23.13185 0.21659,19.95438 0.21658,-15.09121 0.21658,4.31439 0.21658,-20.22297 0.21658,37.94461 0.21658,15.38024 0.21658,-55.18141 0.21658,-17.12924 0.43316,84.8384 0.21658,-7.62708 0.43316,24.70326 0.43317,-58.03035 0.21658,7.65665 0.21658,-5.81391 0.21658,0.53834 0.21658,13.49474 0.21658,22.27857 0.21658,-34.37929 0.21658,-2.80419 0.21658,2.22953 0.21658,-9.88102 0.21658,21.21593 0.21658,-13.48079 0.21658,50.97374 0.21659,-26.72208 0.21658,16.38442 0.21658,-2.20721 0.21658,8.00141 0.21658,-0.67896 0.21658,-21.56666 0.21658,-66.53937 0.21658,-0.97795 0.21658,17.9305 0.21658,7.37207 0.21658,1.70117 0.21658,23.72006 0.21658,-39.89733 0.21659,5.63174 0.21658,15.83863 0.21658,-2.33834 0.21658,-13.41299 0.21658,3.4806 0.21658,64.55002 0.21658,19.63041 0.21658,-23.17982 0.43316,-70.91023 0.43316,23.68824 0.21658,0.82319 0.21658,1.49014 0.21659,-61.66126 0.43316,16.41751 0.21658,43.06378 0.43316,-24.81468 0.21658,48.25536 0.21658,7.87368 0.21658,-27.11433 0.21658,19.37679 0.64975,-38.30802 0.21658,43.67488 0.43316,-17.79014 0.21658,-9.84093 0.21658,-3.56115 0.43316,10.53291 0.43316,-16.79208 0.21658,-16.03482 0.21658,13.97177 0.21658,34.12256 0.21658,-7.0339 0.21659,7.47174 0.21658,-26.41989 0.43316,18.39135 0.21658,57.05869 0.43316,-27.68996 0.21658,-40.56333 0.21658,29.285 0.43316,-46.89916 0.21658,60.15186 0.21658,12.31882 0.21658,2.76522 0.21659,-36.36864 0.43316,40.34561 0.21658,-14.18393 0.21658,6.1062 0.21658,1.30262 0.21658,-12.92872 0.21658,-5.8989 0.21658,-11.07226 0.21658,0.33406 0.21658,5.36683 0.43317,-44.57585 0.21658,29.37209 0.21658,-11.57434 0.21658,6.49099 0.21658,42.5383 0.21658,-22.71274 0.43316,-13.99508 0.21658,-1.29352 0.21658,-40.36193 0.21658,11.90529 0.21658,-28.25926 0.21658,2.98601 0.21658,29.57939 0.21659,-20.80518 0.43316,33.20198 0.21658,-1.76396 0.21658,4.77216 0.21658,-12.6599 0.21658,21.92887 0.21658,5.43101 0.21658,2.4774 0.21658,-26.50566 0.21658,-6.89932 0.21658,9.43848 0.43316,-28.79322 0.43317,63.0445 0.21658,-14.97574 0.21658,17.81424 0.21658,-1.7578 0.21658,2.03408 0.21658,-33.60656 0.21658,38.3587 0.43316,22.71118 0.43316,-56.04883 0.21659,-0.8077 0.43316,58.37738 0.21658,-57.33251 0.21658,44.62263 0.21658,-33.83303 0.21658,-9.12458 0.21658,-25.66649 0.21658,44.03238 0.21658,6.59491 0.21658,-2.85374 0.21658,0.19958 0.21658,-7.07109 0.43317,-35.18007 0.21658,6.24207 0.21658,-17.64132 0.21658,-6.44022 0.21658,-24.06576 0.21658,-0.60919 0.21658,-14.88874 0.21658,9.57169 0.21658,28.29106 0.21658,-15.05807 0.21658,47.20116 0.64974,-49.67359 0.21659,11.53733 0.21658,-8.29351 0.21658,35.83072 0.21658,-5.02162 0.21658,32.84158 0.21658,-81.04038 0.43316,23.00788 0.21658,59.03574 0.21658,8.15183 0.21658,-16.39998 0.21658,4.98056 0.21659,-45.37761 0.21658,11.23507 0.43316,33.95841 0.21658,-11.67377 0.21658,-38.30972 0.21658,-12.85304 0.43316,-13.51214 0.21658,16.75391 0.21658,40.09125 0.21658,-4.40045 0.21658,27.94683 0.21658,-53.13742 0.21659,46.71807 0.21658,-46.90707 0.21658,-10.32636 0.21658,27.21087 0.21658,-34.6581 0.21658,3.82778 0.21658,19.54071 0.21658,33.08142 0.21658,0.89757 0.21658,19.20129 0.21658,40.71847 0.21658,15.80066 0.21658,-53.77198 0.21658,24.25008 0.21659,-11.74276 0.21658,-40.16503 0.21658,-3.02117 0.21658,9.1803 0.21658,0.54998 0.21658,6.17535 0.21658,-53.06258 0.21658,36.93043 0.21658,-31.54206 0.21658,41.99023 0.21658,6.63131 0.21658,29.72001 0.21659,-9.84858 0.21658,21.83239 0.21658,-17.59402 0.21658,1.10265 0.21658,-38.01245 0.64974,47.95486 0.21658,-17.94856 0.21658,19.44985 0.21658,-17.75381 0.21658,-35.63154 0.21658,38.92647 0.43317,24.61759 0.21658,-22.45036 0.21658,-4.04414 0.21658,6.82981 0.21658,-19.34722 0.21658,13.15752 0.21658,-1.41624 0.21658,-7.06898 0.21658,-27.19585 0.21658,50.33201 0.21658,-1.3213 0.21658,-22.75113 0.43316,-8.07482 0.21659,-16.13887 0.21658,4.20776 0.21658,18.19815 0.21658,-18.42202 0.43316,-12.05316 0.21658,-23.48552 0.21658,-6.9332 0.21658,38.59297 0.21658,6.50519 0.21658,-25.15419 0.21658,35.62913 0.21659,-42.58094 0.21658,-9.05118 0.21658,11.55426 0.21658,21.46226 0.21658,-19.79227 0.21658,-2.40531 0.21658,-0.59503 0.21658,34.36787 0.21658,-6.32594 0.21658,10.14697 0.43316,-23.13393 0.21658,8.98776 0.21658,-21.87328 0.21659,19.41524 0.21658,-48.08779 0.21658,-7.31358 0.21658,-22.47523 0.21658,31.47131 0.64974,38.67586 0.21658,10.03608 0.21658,20.76553 0.21658,-3.3937 0.43316,-62.28292 0.21658,-0.76523 0.21659,11.80354 0.21658,45.70735 0.21658,-20.1002 0.21658,26.5956 0.21658,-20.78368 0.21658,2.1225 0.21658,37.58237 0.21658,-20.17868 0.21658,7.49408 0.21658,-13.23191 v 0"
           style="fill:none;stroke:#ff7f0e;stroke-width:1.5;stroke-linecap:square"
           id="path151" />
      </g>
      <g
         id="patch_3">
        <path
           d="M 57.6,307.584 V 41.472"
           style="fill:none;stroke:#000000;stroke-width:0.8;stroke-linecap:square;stroke-linejoin:miter"
           id="path154" />
      </g>
      <g
         id="patch_4">
        <path
           d="M 414.72,307.584 V 41.472"
           style="fill:none;stroke:#000000;stroke-width:0.8;stroke-linecap:square;stroke-linejoin:miter"
           id="path157" />
      </g>
      <g
         id="patch_5">
        <path
           d="M 57.6,307.584 H 414.72"
           style="fill:none;stroke:#000000;stroke-width:0.8;stroke-linecap:square;stroke-linejoin:miter"
           id="path160" />
      </g>
      <g
         id="patch_6">
        <path
           d="M 57.6,41.472 H 414.72"
           style="fill:none;stroke:#000000;stroke-width:0.8;stroke-linecap:square;stroke-linejoin:miter"
           id="path163" />
      </g>
      <g
         id="legend_1">
        <g
           id="patch_7" />
        <g
           id="line2d_16"
           transform="translate(-15)">
          <path
             d="m 272.55125,54.570437 h 20"
             style="fill:none;stroke:#1f77b4;stroke-width:1.5;stroke-linecap:square"
             id="path169" />
        </g>
        <g
           id="line2d_17" />
        <g
           id="text_17"
           transform="translate(-15)">
          <text
             style="font-style:normal;font-weight:normal;font-stretch:normal;font-size:10px;font-family:'DejaVu Sans';text-anchor:start"
             x="300.55124"
             y="58.070438"
             id="text173">Without equilibration</text>
        </g>
        <g
           id="line2d_18"
           transform="translate(-15,6)">
          <path
             d="m 272.55125,69.248562 h 20"
             style="fill:none;stroke:#ff7f0e;stroke-width:1.5;stroke-linecap:square"
             id="path176" />
        </g>
        <g
           id="line2d_19" />
        <g
           id="text_18"
           transform="translate(-15,6)">
          <text
             style="font-style:normal;font-weight:normal;font-stretch:normal;font-size:10px;font-family:'DejaVu Sans';text-anchor:start"
             x="300.55124"
             y="72.748566"
             id="text180">With equilibration</text>
        </g>
      </g>
    </g>
  </g>
  <defs
     id="defs189">
    <clipPath
       id="p27500dee21">
      <rect
         height="266.112"
         width="357.12"
         x="57.599998"
         y="41.472"
         id="rect186" />
    </clipPath>
  </defs>
</svg>
